<svg width="23" height="20" viewBox="0 0 23 20" fill="none" xmlns="http://www.w3.org/2000/svg">
<rect width="22.5" height="19.416" transform="translate(0.5)" fill="white"/>
<path d="M5.583 17.416H17.917C18.7347 17.416 19.5188 17.0912 20.097 16.513C20.6752 15.9348 21 15.1507 21 14.333V7.139C21.0001 6.73405 20.9205 6.33304 20.7656 5.95888C20.6107 5.58472 20.3837 5.24473 20.0974 4.95834C19.8111 4.67195 19.4712 4.44477 19.097 4.28978C18.7229 4.13478 18.3219 4.055 17.917 4.055H16.498C16.09 4.055 15.698 3.892 15.408 3.603L14.258 2.452C14.115 2.3087 13.945 2.19502 13.758 2.11746C13.571 2.0399 13.3705 1.99999 13.168 2H10.332C9.922 2 9.532 2.163 9.242 2.452L8.092 3.603C7.802 3.893 7.41 4.055 7.002 4.055H5.583C5.17805 4.055 4.77707 4.13478 4.40296 4.28978C4.02884 4.44477 3.68893 4.67195 3.40264 4.95834C3.11634 5.24473 2.88927 5.58472 2.73439 5.95888C2.57952 6.33304 2.49987 6.73405 2.5 7.139V14.333C2.5 15.1507 2.82482 15.9348 3.40299 16.513C3.98116 17.0912 4.76534 17.416 5.583 17.416Z" stroke="#CBCDD3" stroke-width="1.5" stroke-linecap="round" stroke-linejoin="round"/>
<path d="M11.611 14.638C12.7013 14.638 13.747 14.2049 14.5179 13.4339C15.2889 12.663 15.722 11.6173 15.722 10.527C15.722 9.43671 15.2889 8.39106 14.5179 7.6201C13.747 6.84914 12.7013 6.41602 11.611 6.41602C10.5207 6.41602 9.47505 6.84914 8.70408 7.6201C7.93312 8.39106 7.5 9.43671 7.5 10.527C7.5 11.6173 7.93312 12.663 8.70408 13.4339C9.47505 14.2049 10.5207 14.638 11.611 14.638Z" stroke="#CBCDD3" stroke-width="1.5" stroke-linecap="round" stroke-linejoin="round"/>
</svg>
