<svg width="12" height="12" viewBox="0 0 12 12" fill="none" xmlns="http://www.w3.org/2000/svg">
<path d="M10.5171 10.5232L8.77543 9.94202L8.46171 10.0946C7.73571 10.4469 6.906 10.6346 6 10.6346C3.00343 10.6346 0.857142 8.49345 0.857142 5.92031C0.857142 3.33773 2.988 1.20602 6 1.20602C9.012 1.20602 11.1429 3.33773 11.1429 5.92031C11.1378 6.90861 10.8124 7.86863 10.2154 8.65631L9.92571 9.04202L10.5171 10.5223V10.5232ZM11.1231 11.6289C11.2007 11.6549 11.2841 11.6581 11.3634 11.6382C11.4428 11.6184 11.5148 11.5762 11.571 11.5167C11.6271 11.4572 11.6651 11.3829 11.6803 11.3025C11.6956 11.2222 11.6876 11.1391 11.6571 11.0632L10.9003 9.17145C11.609 8.23528 11.9949 7.09446 12 5.92031C12 3.07973 9.70114 0.348877 6 0.348877C2.29886 0.348877 0 3.07973 0 5.92031C0 8.76088 2.32286 11.4917 6 11.4917C7.06714 11.4917 8.02029 11.262 8.83543 10.866L11.124 11.6289H11.1231Z" fill="#9FA4A8"/>
</svg>
