<svg width="17" height="17" viewBox="0 0 17 17" fill="none" xmlns="http://www.w3.org/2000/svg">
<path d="M2.90062 14.2056L5.05963 13.4853L5.4485 13.6744C6.34844 14.1111 7.37694 14.3438 8.5 14.3438C12.2145 14.3438 14.875 11.6896 14.875 8.5C14.875 5.29869 12.2336 2.65625 8.5 2.65625C4.76638 2.65625 2.125 5.29869 2.125 8.5C2.13128 9.72509 2.53466 10.9151 3.27463 11.8915L3.63375 12.3696L2.90062 14.2046V14.2056ZM2.14944 15.5763C2.05329 15.6085 1.94993 15.6125 1.85157 15.5878C1.7532 15.5632 1.66395 15.5109 1.59434 15.4372C1.52474 15.3634 1.47769 15.2713 1.45876 15.1717C1.43982 15.0721 1.4498 14.9691 1.4875 14.875L2.42569 12.5301C1.54719 11.3696 1.06886 9.95547 1.0625 8.5C1.0625 4.97888 3.91213 1.59375 8.5 1.59375C13.0879 1.59375 15.9375 4.97888 15.9375 8.5C15.9375 12.0211 13.0581 15.4062 8.5 15.4062C7.17719 15.4062 5.99569 15.1215 4.98525 14.6306L2.14838 15.5763H2.14944Z" fill="#F52E46"/>
</svg>
