<svg width="14" height="15" viewBox="0 0 14 15" fill="none" xmlns="http://www.w3.org/2000/svg">
<path d="M12.1835 2.32016C11.9762 2.11277 11.73 1.94826 11.459 1.83602C11.1881 1.72378 10.8977 1.66602 10.6044 1.66602C10.3112 1.66602 10.0208 1.72378 9.74982 1.83602C9.47888 1.94826 9.2327 2.11277 9.02534 2.32016L8.38368 2.96299C8.35155 2.98861 8.32222 3.01755 8.29618 3.04933L1.92618 9.42049C1.84473 9.50173 1.78912 9.60524 1.76634 9.71799L1.17834 12.6347C1.15916 12.7289 1.16359 12.8265 1.19123 12.9186C1.21887 13.0108 1.26887 13.0946 1.33678 13.1628C1.40469 13.2309 1.48839 13.2812 1.58044 13.3091C1.67248 13.3371 1.77001 13.3419 1.86434 13.323L4.78568 12.7397C4.89843 12.7169 5.00194 12.6613 5.08317 12.5798L12.1835 5.47949C12.3909 5.27214 12.5554 5.02596 12.6676 4.75502C12.7799 4.48408 12.8377 4.19368 12.8377 3.90041C12.8377 3.60714 12.7799 3.31674 12.6676 3.0458C12.5554 2.77486 12.3909 2.52868 12.1835 2.32133M8.75234 4.24516L10.2608 5.75366L4.38318 11.6302L2.49551 12.0082L2.87468 10.1228L8.75234 4.24516ZM11.0857 4.92883L9.57718 3.41916L9.85017 3.14616C9.94872 3.04517 10.0663 2.96475 10.1962 2.90954C10.326 2.85434 10.4655 2.82545 10.6066 2.82456C10.7477 2.82367 10.8876 2.85079 11.0181 2.90434C11.1487 2.9579 11.2673 3.03684 11.3671 3.13657C11.4669 3.2363 11.5459 3.35485 11.5996 3.48535C11.6532 3.61584 11.6805 3.75569 11.6797 3.89679C11.6789 4.03788 11.6501 4.17742 11.595 4.30732C11.5399 4.43721 11.4596 4.55487 11.3587 4.65349L11.0857 4.92883Z" fill="#26282B"/>
</svg>
