<svg width="17" height="17" viewBox="0 0 17 17" fill="none" xmlns="http://www.w3.org/2000/svg">
<path d="M8.68456 1.27743C8.83027 0.908286 9.25285 0.527607 9.78956 0.677571C10.8691 0.978107 11.2783 2.12561 11.3906 3.19964C11.4859 4.11825 11.3894 5.15889 11.1799 6.07143H12.4956C12.8331 6.07141 13.1663 6.14642 13.4712 6.29102C13.7762 6.43561 14.0451 6.64618 14.2587 6.90749C14.4722 7.1688 14.625 7.47431 14.706 7.80192C14.7869 8.12953 14.7941 8.47105 14.7268 8.80175L13.9813 12.4725C13.8688 13.0263 13.6429 13.5508 13.318 14.0131C12.993 14.4754 12.576 14.8655 12.0931 15.159C11.6101 15.4524 11.0717 15.6427 10.5117 15.7181C9.95166 15.7935 9.38209 15.7522 8.83877 15.5969L4.16985 14.263C3.75588 14.1446 3.38396 13.9113 3.09724 13.5901C2.81053 13.2689 2.62077 12.873 2.54999 12.4483L2.29742 10.9328C2.16385 10.1308 2.62952 9.39796 3.29799 9.05918C6.1971 7.59171 7.30877 4.76911 8.5267 1.67754L8.68456 1.27743ZM9.55399 1.57311C9.54493 1.58508 9.53738 1.59814 9.53152 1.61196L9.33967 2.09889C8.15756 5.1085 6.92627 8.24318 3.70963 9.87154C3.33745 10.0598 3.1377 10.4344 3.19538 10.7829L3.44856 12.2983C3.49093 12.5531 3.60468 12.7907 3.77662 12.9835C3.94857 13.1763 4.17165 13.3164 4.41999 13.3875L9.08892 14.7214C9.51153 14.8422 9.95457 14.8743 10.3902 14.8157C10.8258 14.7571 11.2446 14.609 11.6202 14.3807C11.9959 14.1525 12.3202 13.849 12.573 13.4894C12.8257 13.1298 13.0013 12.7218 13.0888 12.291L13.8343 8.62021C13.8747 8.42175 13.8704 8.2168 13.8217 8.02021C13.7731 7.82361 13.6814 7.64029 13.5532 7.48351C13.425 7.32672 13.2635 7.20041 13.0805 7.11369C12.8975 7.02698 12.6975 6.98205 12.495 6.98214H10.5873C10.5162 6.98218 10.446 6.96555 10.3825 6.93358C10.3189 6.90161 10.2638 6.8552 10.2214 6.79806C10.179 6.74092 10.1506 6.67465 10.1384 6.60456C10.1263 6.53446 10.1307 6.4625 10.1514 6.39443C10.4356 5.45882 10.5861 4.27611 10.4841 3.29436C10.3779 2.27861 10.0367 1.70607 9.56552 1.56096L9.55399 1.57311Z" fill="#F52E46"/>
</svg>
