<svg width="17" height="17" viewBox="0 0 17 17" fill="none" xmlns="http://www.w3.org/2000/svg">
<path d="M9.78956 0.677571C9.25285 0.527607 8.83027 0.908286 8.68456 1.27743L8.5267 1.67814C7.30877 4.7685 6.1971 7.59171 3.29799 9.05918C2.62952 9.39796 2.16385 10.1308 2.29742 10.9328L2.54999 12.4483C2.62071 12.8731 2.81051 13.2692 3.09735 13.5906C3.38419 13.9119 3.75629 14.1453 4.17045 14.2636L8.83938 15.5969C9.38266 15.7521 9.95217 15.7933 10.5121 15.7179C11.0721 15.6425 11.6104 15.4521 12.0933 15.1587C12.5762 14.8653 12.9931 14.4752 13.318 14.0129C13.6429 13.5507 13.8687 13.0262 13.9813 12.4725L14.7268 8.80175C14.7941 8.47099 14.7869 8.12943 14.7059 7.80178C14.6249 7.47412 14.4721 7.16858 14.2585 6.90726C14.0449 6.64594 13.7758 6.43538 13.4708 6.29082C13.1658 6.14626 12.8325 6.07132 12.495 6.07143H11.1793C11.3888 5.15889 11.4853 4.11825 11.3894 3.19964C11.2777 2.125 10.8691 0.978107 9.78956 0.677571Z" fill="#F52E46"/>
</svg>
