<svg width="20" height="22" viewBox="0 0 20 22" fill="none" xmlns="http://www.w3.org/2000/svg">
<path d="M16.7499 8.71V8.005C16.7499 4.136 13.7259 1 9.99994 1C6.27394 1 3.24994 4.136 3.24994 8.005V8.71C3.25114 9.55155 3.01098 10.3758 2.55794 11.085L1.44994 12.81C0.43894 14.385 1.21094 16.526 2.96994 17.024C7.56623 18.3257 12.4337 18.3257 17.0299 17.024C18.7889 16.526 19.5609 14.385 18.5499 12.811L17.4419 11.086C16.9885 10.3769 16.748 9.55265 16.7489 8.711L16.7499 8.71Z" stroke="#9FA4A8" stroke-width="1.5"/>
<path d="M5.49994 18C6.15494 19.748 7.92194 21 9.99994 21C12.0779 21 13.8449 19.748 14.4999 18" stroke="#9FA4A8" stroke-width="1.5" stroke-linecap="round"/>
</svg>
