<svg width="16" height="4" viewBox="0 0 16 4" fill="none" xmlns="http://www.w3.org/2000/svg">
<path d="M8.33342 2.83366C8.79365 2.83366 9.16675 2.46056 9.16675 2.00033C9.16675 1.54009 8.79365 1.16699 8.33342 1.16699C7.87318 1.16699 7.50008 1.54009 7.50008 2.00033C7.50008 2.46056 7.87318 2.83366 8.33342 2.83366Z" stroke="#9FA4A8" stroke-width="1.66667" stroke-linecap="round" stroke-linejoin="round"/>
<path d="M14.1667 2.83366C14.627 2.83366 15.0001 2.46056 15.0001 2.00033C15.0001 1.54009 14.627 1.16699 14.1667 1.16699C13.7065 1.16699 13.3334 1.54009 13.3334 2.00033C13.3334 2.46056 13.7065 2.83366 14.1667 2.83366Z" stroke="#9FA4A8" stroke-width="1.66667" stroke-linecap="round" stroke-linejoin="round"/>
<path d="M2.50008 2.83366C2.96032 2.83366 3.33341 2.46056 3.33341 2.00033C3.33341 1.54009 2.96032 1.16699 2.50008 1.16699C2.03984 1.16699 1.66675 1.54009 1.66675 2.00033C1.66675 2.46056 2.03984 2.83366 2.50008 2.83366Z" stroke="#9FA4A8" stroke-width="1.66667" stroke-linecap="round" stroke-linejoin="round"/>
</svg>
